{"title":"High Anxiety(1977)MPEG-4[DaScubaDude]","uid":14407727,"size":944006086,"categoryP":"video","categoryS":"movies","magnet":"?xt=urn:btih:a6d382e007698aaa98ca29757a9502248a6baab7&amp;dn=High+Anxiety%281977%29MPEG-4%5BDaScubaDude%5D&amp;tr=udp%3A%2F%2Ftracker.leechers-paradise.org%3A6969&amp;tr=udp%3A%2F%2Fzer0day.ch%3A1337&amp;tr=udp%3A%2F%2Fopen.demonii.com%3A1337&amp;tr=udp%3A%2F%2Ftracker.coppersurfer.tk%3A6969&amp;tr=udp%3A%2F%2Fexodus.desync.com%3A6969","seeders":0,"leechers":1,"uploader":"dascuba","files":1,"time":1461430361,"description":"High Anxiety (1977)\r\nPG | 1h 34min | Comedy | 25 December 1977 (USA)\r\nMel Brooks' parody of Alfred Hitchcock films.\r\nDirector: Mel Brooks\r\nWriters: Mel Brooks, Ron Clark | \r\nStars: Mel Brooks, Madeline Kahn, Cloris Leachman\r\n\r\n General\r\nComplete name                            : HighAnxHIGHANX_Title1.mp4\r\nFormat                                   : MPEG-4\r\nFormat profile                           : Base Media\r\nCodec ID                                 : isom\r\nFile size                                : 900 MiB\r\nDuration                                 : 1h 33mn\r\nOverall bit rate                         : 1 339 Kbps\r\nMovie name                               : HIGHANX\r\nWriting application                      : Lavf54.6.100\r\n\r\nVideo\r\nID                                       : 1\r\nFormat                                   : AVC\r\nFormat/Info                              : Advanced Video Codec\r\nFormat profile                           :   \r\nFormat settings, CABAC                   : No\r\nFormat settings, ReFrames                : 6 frames\r\nCodec ID                                 : avc1\r\nCodec ID/Info                            : Advanced Video Coding\r\nDuration                                 : 1h 33mn\r\nBit rate                                 : 1 205 Kbps\r\nWidth                                    : 720 pixels\r\nHeight                                   : 404 pixels\r\nDisplay aspect ratio                     : 16:9\r\nFrame rate mode                          : Constant\r\nFrame rate                               : 29.970 fps\r\nColor space                              : YUV\r\nChroma subsampling                       : 4:2:0\r\nBit depth                                : 8 bits\r\nScan type                                : Progressive\r\nBits/(Pixel*Frame)                       : 0.138\r\nStream size                              : 810 MiB (90%)\r\n\r\nAudio\r\nID                                       : 2\r\nFormat                                   : AAC\r\nFormat/Info                              : Advanced Audio Codec\r\nFormat profile                           : LC\r\nCodec ID                                 : 40\r\nDuration                                 : 1h 33mn\r\nBit rate mode                            : Constant\r\nBit rate                                 : 128 Kbps\r\nChannel(s)                               : 2 channels\r\nChannel positions                        : Front: L R\r\nSampling rate                            : 44.1 KHz\r\nCompression mode                         : Lossy\r\nStream size                              : 86.0 MiB (10%)","torrent":{"xt":"urn:btih:a6d382e007698aaa98ca29757a9502248a6baab7","amp;dn":"High+Anxiety%281977%29MPEG-4%5BDaScubaDude%5D","amp;tr":["udp%3A%2F%2Ftracker.leechers-paradise.org%3A6969","udp%3A%2F%2Fzer0day.ch%3A1337","udp%3A%2F%2Fopen.demonii.com%3A1337","udp%3A%2F%2Ftracker.coppersurfer.tk%3A6969","udp%3A%2F%2Fexodus.desync.com%3A6969"],"infoHash":"a6d382e007698aaa98ca29757a9502248a6baab7","infoHashBuffer":{"type":"Buffer","data":[166,211,130,224,7,105,138,170,152,202,41,117,122,149,2,36,138,107,170,183]},"announce":[],"urlList":[]}}